<svg width="27" height="25" viewBox="0 0 27 25" fill="none" xmlns="http://www.w3.org/2000/svg">
<path d="M8.55096 20.75C8.17575 20.75 7.80895 20.86 7.49696 21.066C7.18499 21.272 6.94182 21.5649 6.79823 21.9075C6.65465 22.2501 6.61707 22.6271 6.69027 22.9908C6.76348 23.3545 6.94416 23.6886 7.20948 23.9509C7.47481 24.213 7.81284 24.3916 8.18084 24.464C8.54886 24.5364 8.93032 24.4991 9.27697 24.3572C9.62362 24.2154 9.91992 23.975 10.1284 23.6668C10.3368 23.3584 10.4481 22.9959 10.4481 22.625C10.4481 22.1278 10.2482 21.6508 9.89245 21.2991C9.53667 20.9475 9.05411 20.75 8.55096 20.75ZM22.4633 20.75C22.0881 20.75 21.7213 20.86 21.4093 21.066C21.0974 21.272 20.8542 21.5649 20.7106 21.9075C20.5671 22.2501 20.5294 22.6271 20.6026 22.9908C20.6758 23.3545 20.8566 23.6886 21.1218 23.9509C21.3871 24.213 21.7252 24.3916 22.0933 24.464C22.4612 24.5364 22.8426 24.4991 23.1893 24.3572C23.536 24.2154 23.8323 23.975 24.0407 23.6668C24.2492 23.3584 24.3605 22.9959 24.3605 22.625C24.3605 22.1278 24.1606 21.6508 23.8049 21.2991C23.4491 20.9475 22.9665 20.75 22.4633 20.75ZM23.7281 19.4979V16.9979L10.1471 16.9864L9.7406 15.3709L26.2584 12.454L26.2576 3.25H6.69012L6.0609 0.75H0.962402V3.25H4.08345L8.16926 19.4848L23.7281 19.4979ZM23.7281 5.75V10.361L9.12858 12.9392L7.31934 5.75H23.7281Z" fill="black"/>
</svg>
