<svg width="27" height="26" viewBox="0 0 27 26" fill="none" xmlns="http://www.w3.org/2000/svg">
<path d="M26.5564 23.9911L19.1034 16.6248C20.6862 14.611 21.4326 12.0767 21.1911 9.53794C20.9495 6.99918 19.738 4.64686 17.8031 2.95995C15.8683 1.27303 13.3557 0.378327 10.7769 0.458027C8.19811 0.537714 5.74698 1.58581 3.92259 3.3889C2.09821 5.192 1.03774 7.61453 0.957108 10.1632C0.876467 12.712 1.78173 15.1952 3.48858 17.1075C5.19541 19.0197 7.5755 20.2171 10.1442 20.4558C12.713 20.6946 15.2772 19.9568 17.3148 18.3926L24.7681 25.7586L26.5564 23.9911ZM11.1175 17.9998C9.61667 17.9998 8.14951 17.56 6.90157 16.736C5.65364 15.9118 4.68099 14.7405 4.10664 13.37C3.53227 11.9996 3.382 10.4916 3.6748 9.03671C3.9676 7.58185 4.69035 6.24549 5.75162 5.19659C6.81291 4.1477 8.16505 3.43339 9.6371 3.144C11.1091 2.85461 12.635 3.00314 14.0215 3.5708C15.4082 4.13845 16.5934 5.09975 17.4273 6.33311C18.261 7.56649 18.7061 9.01653 18.7061 10.4999C18.7038 12.4883 17.9036 14.3947 16.481 15.8007C15.0584 17.2067 13.1295 17.9976 11.1175 17.9998Z" fill="black"/>
</svg>
