<svg width="112" height="19" viewBox="0 0 112 19" fill="none" xmlns="http://www.w3.org/2000/svg">
<path d="M15.8095 18.5138H10.0754L0.850586 0.459889H6.34568L12.9823 14.0463L19.6056 0.459889H25.1007L15.8095 18.5138Z" fill="black"/>
<path d="M44.9042 5.54495C44.5591 5.37852 44.1034 5.19018 43.5371 4.97994C42.9708 4.76971 42.3293 4.57261 41.6125 4.38866C40.8958 4.19594 40.1171 4.03827 39.2764 3.91563C38.4358 3.78423 37.573 3.71853 36.6882 3.71853C35.9803 3.71853 35.3741 3.74043 34.8697 3.78423C34.3742 3.82803 33.9539 3.88497 33.6088 3.95505C33.2725 4.02513 33.0026 4.10834 32.7991 4.2047C32.6044 4.2923 32.454 4.38428 32.3478 4.48064C32.2416 4.57699 32.1709 4.67335 32.1355 4.76971C32.1089 4.86607 32.0956 4.95367 32.0956 5.0325C32.0956 5.2953 32.2284 5.52743 32.4938 5.72891C32.7593 5.92162 33.1221 6.09682 33.5822 6.2545C34.0424 6.40341 34.5777 6.54795 35.1883 6.68811C35.7989 6.8195 36.4448 6.95966 37.1262 7.10858C37.8164 7.24873 38.5243 7.40641 39.2499 7.5816C39.9843 7.74804 40.6922 7.94514 41.3736 8.17289C42.0638 8.40065 42.7142 8.66782 43.3247 8.97441C43.9353 9.27225 44.4707 9.62264 44.9308 10.0256C45.3909 10.4285 45.7537 10.8928 46.0192 11.4184C46.2847 11.944 46.4174 12.544 46.4174 13.2185C46.4174 14.0858 46.2625 14.8303 45.9528 15.4523C45.6431 16.0742 45.2272 16.5998 44.7052 17.029C44.1919 17.4583 43.5946 17.8043 42.9133 18.0671C42.2319 18.3211 41.5152 18.5182 40.763 18.6584C40.0197 18.7985 39.2632 18.8905 38.4933 18.9343C37.7323 18.9781 37.0067 19 36.3165 19C34.5114 19 32.8389 18.8511 31.2992 18.5533C29.7684 18.2642 28.4145 17.9006 27.2377 17.4627V13.1528C28.4499 13.8186 29.8303 14.3398 31.3789 14.7165C32.9363 15.0931 34.5998 15.2815 36.3696 15.2815C37.4138 15.2815 38.2632 15.2289 38.918 15.1238C39.5817 15.0099 40.0994 14.8698 40.471 14.7033C40.8427 14.5281 41.0948 14.3398 41.2276 14.1383C41.3603 13.9368 41.4267 13.7441 41.4267 13.5602C41.4267 13.2711 41.2939 13.0214 41.0285 12.8112C40.763 12.5922 40.4002 12.4039 39.9401 12.2462C39.4799 12.0798 38.9446 11.9308 38.334 11.7994C37.7235 11.6593 37.0731 11.5235 36.3829 11.3921C35.7015 11.252 34.998 11.103 34.2724 10.9454C33.5468 10.7877 32.8389 10.6037 32.1487 10.3935C31.4674 10.1745 30.8214 9.92485 30.2108 9.64454C29.6003 9.35546 29.0649 9.01821 28.6048 8.63278C28.1447 8.23859 27.7819 7.78746 27.5164 7.27939C27.2509 6.76256 27.1182 6.1669 27.1182 5.49239C27.1182 4.69525 27.2598 4.00761 27.5429 3.42946C27.8261 2.85131 28.2066 2.36077 28.6844 1.95781C29.1711 1.5461 29.7286 1.21323 30.3569 0.959198C30.994 0.705164 31.662 0.508068 32.3611 0.367911C33.0602 0.227755 33.7681 0.131397 34.4848 0.0788382C35.2016 0.0262794 35.8829 0 36.5289 0C37.2368 0 37.9624 0.0350392 38.7057 0.105118C39.4578 0.175196 40.1967 0.275934 40.9223 0.407331C41.6479 0.529968 42.347 0.674504 43.0195 0.840941C43.7008 1.00738 44.3291 1.18257 44.9042 1.36653V5.54495Z" fill="black"/>
<path d="M64.2964 11.8389C64.2964 13.039 64.0973 14.0726 63.6991 14.9398C63.3097 15.8071 62.7345 16.521 61.9736 17.0816C61.2214 17.6422 60.2967 18.0583 59.1995 18.3299C58.1022 18.5927 56.8501 18.7241 55.4431 18.7241C54.7795 18.7241 54.0981 18.689 53.3991 18.6189C52.7 18.5576 52.0275 18.4788 51.3816 18.3824C50.7356 18.2861 50.1383 18.1853 49.5897 18.0802C49.0499 17.9663 48.5986 17.8612 48.2358 17.7649V13.5339C48.6075 13.6828 49.0145 13.8361 49.4569 13.9938C49.8994 14.1427 50.3905 14.2785 50.9303 14.4011C51.4789 14.5237 52.0806 14.6245 52.7354 14.7033C53.3991 14.7822 54.1291 14.8216 54.9255 14.8216C55.7838 14.8216 56.4962 14.7296 57.0625 14.5456C57.6376 14.3529 58.0978 14.0901 58.4429 13.7573C58.788 13.4156 59.0313 13.0171 59.1729 12.5615C59.3145 12.106 59.3853 11.6067 59.3853 11.0636V0.459889H64.2964V11.8389Z" fill="black"/>
<path d="M83.0912 11.8389C83.0912 13.039 82.8921 14.0726 82.4939 14.9398C82.1045 15.8071 81.5294 16.521 80.7684 17.0816C80.0162 17.6422 79.0915 18.0583 77.9943 18.3299C76.897 18.5927 75.6449 18.7241 74.238 18.7241C73.5743 18.7241 72.8929 18.689 72.1939 18.6189C71.4948 18.5576 70.8223 18.4788 70.1764 18.3824C69.5304 18.2861 68.9331 18.1853 68.3845 18.0802C67.8447 17.9663 67.3934 17.8612 67.0306 17.7649V13.5339C67.4023 13.6828 67.8093 13.8361 68.2518 13.9938C68.6942 14.1427 69.1853 14.2785 69.7251 14.4011C70.2737 14.5237 70.8754 14.6245 71.5302 14.7033C72.1939 14.7822 72.9239 14.8216 73.7203 14.8216C74.5786 14.8216 75.291 14.7296 75.8573 14.5456C76.4325 14.3529 76.8926 14.0901 77.2377 13.7573C77.5828 13.4156 77.8261 13.0171 77.9677 12.5615C78.1093 12.106 78.1801 11.6067 78.1801 11.0636V0.459889H83.0912V11.8389Z" fill="black"/>
<path d="M93.6301 7.34509L103.718 0.459889H110.314L98.0368 9.11895L111.137 18.5138H103.957L93.6301 11.0111V18.5138H88.6792V0.459889H93.6301V7.34509Z" fill="black"/>
</svg>
